<?xml version="1.0" encoding="utf-8"?>
<svg version="1.1" xmlns:xlink="http://www.w3.org/1999/xlink" width="310px" height="124px" xmlns="http://www.w3.org/2000/svg">
  <defs>
    <mask fill="white" id="clip890">
      <path d="M 0 59.7142857142857  L 0 54.2857142857143  C 0 23.8857142857143  22 0  50 0  L 250 0  C 265.409817394074 0  279.002319950505 7.23464382985553  288.110413403043 18.8082291433526  C 295.55193959552 28.2641200715754  300 40.6163731707088  300 54.2857142857143  L 300 59.7142857142857  C 300 90.1142857142857  278 114  250 114  L 50 114  C 22 114  0 90.1142857142857  0 59.7142857142857  Z " fill-rule="evenodd" />
    </mask>
    <filter x="0px" y="0px" width="310px" height="124px" filterUnits="userSpaceOnUse" id="filter891">
      <feOffset dx="5" dy="5" in="SourceAlpha" result="shadowOffsetInner" />
      <feGaussianBlur stdDeviation="2.5" in="shadowOffsetInner" result="shadowGaussian" />
      <feComposite in2="shadowGaussian" operator="atop" in="SourceAlpha" result="shadowComposite" />
      <feColorMatrix type="matrix" values="0 0 0 0 1  0 0 0 0 1  0 0 0 0 1  0 0 0 0.192156862745098 0  " in="shadowComposite" />
    </filter>
    <g id="widget892">
      <path d="M 0 59.7142857142857  L 0 54.2857142857143  C 0 23.8857142857143  22 0  50 0  L 250 0  C 265.409817394074 0  279.002319950505 7.23464382985553  288.110413403043 18.8082291433526  C 295.55193959552 28.2641200715754  300 40.6163731707088  300 54.2857142857143  L 300 59.7142857142857  C 300 90.1142857142857  278 114  250 114  L 50 114  C 22 114  0 90.1142857142857  0 59.7142857142857  Z " fill-rule="nonzero" fill="#000000" stroke="none" fill-opacity="0.996078431372549" />
      <path d="M 0 59.7142857142857  L 0 54.2857142857143  C 0 23.8857142857143  22 0  50 0  L 250 0  C 265.409817394074 0  279.002319950505 7.23464382985553  288.110413403043 18.8082291433526  C 295.55193959552 28.2641200715754  300 40.6163731707088  300 54.2857142857143  L 300 59.7142857142857  C 300 90.1142857142857  278 114  250 114  L 50 114  C 22 114  0 90.1142857142857  0 59.7142857142857  Z " stroke-width="8" stroke="#ffffff" fill="none" mask="url(#clip890)" />
    </g>
  </defs>
  <g>
    <use xlink:href="#widget892" filter="url(#filter891)" />
    <use xlink:href="#widget892" />
  </g>
</svg>