<?xml version="1.0" encoding="utf-8"?>
<svg version="1.1" xmlns:xlink="http://www.w3.org/1999/xlink" width="360px" height="481px" xmlns="http://www.w3.org/2000/svg">
  <defs>
    <filter x="226px" y="4319px" width="360px" height="481px" filterUnits="userSpaceOnUse" id="filter859">
      <feOffset dx="5" dy="5" in="SourceAlpha" result="shadowOffsetInner" />
      <feGaussianBlur stdDeviation="2.5" in="shadowOffsetInner" result="shadowGaussian" />
      <feComposite in2="shadowGaussian" operator="atop" in="SourceAlpha" result="shadowComposite" />
      <feColorMatrix type="matrix" values="0 0 0 0 0  0 0 0 0 0  0 0 0 0 0  0 0 0 0.349019607843137 0  " in="shadowComposite" />
    </filter>
    <g id="widget860">
      <path d="M 226.5 4319.5  L 571 4319.5  A 4.5 4.5 0 0 1 575.5 4324 L 575.5 4785  A 4.5 4.5 0 0 1 571 4789.5 L 226.5 4789.5  L 226.5 4319.5  Z " fill-rule="nonzero" fill="#000000" stroke="none" fill-opacity="0" />
      <path d="M 226.5 4319.5  L 571 4319.5  A 4.5 4.5 0 0 1 575.5 4324 L 575.5 4785  A 4.5 4.5 0 0 1 571 4789.5 L 226.5 4789.5  L 226.5 4319.5  Z " stroke-width="1" stroke="#000000" fill="none" />
    </g>
  </defs>
  <g transform="matrix(1 0 0 1 -226 -4319 )">
    <use xlink:href="#widget860" filter="url(#filter859)" />
    <use xlink:href="#widget860" />
  </g>
</svg>