<?xml version="1.0" encoding="utf-8"?>
<svg version="1.1" xmlns:xlink="http://www.w3.org/1999/xlink" width="360px" height="560px" xmlns="http://www.w3.org/2000/svg">
  <defs>
    <filter x="826px" y="2385px" width="360px" height="560px" filterUnits="userSpaceOnUse" id="filter880">
      <feOffset dx="5" dy="5" in="SourceAlpha" result="shadowOffsetInner" />
      <feGaussianBlur stdDeviation="2.5" in="shadowOffsetInner" result="shadowGaussian" />
      <feComposite in2="shadowGaussian" operator="atop" in="SourceAlpha" result="shadowComposite" />
      <feColorMatrix type="matrix" values="0 0 0 0 0  0 0 0 0 0  0 0 0 0 0  0 0 0 0.349019607843137 0  " in="shadowComposite" />
    </filter>
    <g id="widget881">
      <path d="M 826.5 2410  A 24.5 24.5 0 0 1 851 2385.5 L 1175.5 2385.5  L 1175.5 2934.5  L 851 2934.5  A 24.5 24.5 0 0 1 826.5 2910 L 826.5 2410  Z " fill-rule="nonzero" fill="#ffffff" stroke="none" fill-opacity="0" />
      <path d="M 826.5 2410  A 24.5 24.5 0 0 1 851 2385.5 L 1175.5 2385.5  L 1175.5 2934.5  L 851 2934.5  A 24.5 24.5 0 0 1 826.5 2910 L 826.5 2410  Z " stroke-width="1" stroke="#ffffff" fill="none" />
    </g>
  </defs>
  <g transform="matrix(1 0 0 1 -826 -2385 )">
    <use xlink:href="#widget881" filter="url(#filter880)" />
    <use xlink:href="#widget881" />
  </g>
</svg>