<?xml version="1.0" encoding="utf-8"?>
<svg version="1.1" xmlns:xlink="http://www.w3.org/1999/xlink" width="320px" height="560px" xmlns="http://www.w3.org/2000/svg">
  <defs>
    <filter x="5px" y="3833px" width="320px" height="560px" filterUnits="userSpaceOnUse" id="filter921">
      <feOffset dx="5" dy="5" in="SourceAlpha" result="shadowOffsetInner" />
      <feGaussianBlur stdDeviation="2.5" in="shadowOffsetInner" result="shadowGaussian" />
      <feComposite in2="shadowGaussian" operator="atop" in="SourceAlpha" result="shadowComposite" />
      <feColorMatrix type="matrix" values="0 0 0 0 0  0 0 0 0 0  0 0 0 0 0  0 0 0 0.349019607843137 0  " in="shadowComposite" />
    </filter>
    <g id="widget922">
      <path d="M 5.5 3858  A 24.5 24.5 0 0 1 30 3833.5 L 290 3833.5  A 24.5 24.5 0 0 1 314.5 3858 L 314.5 4358  A 24.5 24.5 0 0 1 290 4382.5 L 30 4382.5  A 24.5 24.5 0 0 1 5.5 4358 L 5.5 3858  Z " fill-rule="nonzero" fill="#ffffff" stroke="none" fill-opacity="0" />
      <path d="M 5.5 3858  A 24.5 24.5 0 0 1 30 3833.5 L 290 3833.5  A 24.5 24.5 0 0 1 314.5 3858 L 314.5 4358  A 24.5 24.5 0 0 1 290 4382.5 L 30 4382.5  A 24.5 24.5 0 0 1 5.5 4358 L 5.5 3858  Z " stroke-width="1" stroke="#ffffff" fill="none" />
    </g>
  </defs>
  <g transform="matrix(1 0 0 1 -5 -3833 )">
    <use xlink:href="#widget922" filter="url(#filter921)" />
    <use xlink:href="#widget922" />
  </g>
</svg>