<?xml version="1.0" encoding="utf-8"?>
<svg version="1.1" xmlns:xlink="http://www.w3.org/1999/xlink" width="310px" height="421px" xmlns="http://www.w3.org/2000/svg">
  <g transform="matrix(1 0 0 1 -5 -8684 )">
    <path d="M 6 8689  A 4 4 0 0 1 10 8685 L 310 8685  A 4 4 0 0 1 314 8689 L 314 9100  A 4 4 0 0 1 310 9104 L 10 9104  A 4 4 0 0 1 6 9100 L 6 8689  Z " fill-rule="nonzero" fill="#ffffff" stroke="none" fill-opacity="0.501960784313725" />
    <path d="M 5.5 8689  A 4.5 4.5 0 0 1 10 8684.5 L 310 8684.5  A 4.5 4.5 0 0 1 314.5 8689 L 314.5 9100  A 4.5 4.5 0 0 1 310 9104.5 L 10 9104.5  A 4.5 4.5 0 0 1 5.5 9100 L 5.5 8689  Z " stroke-width="1" stroke="#000000" fill="none" stroke-opacity="0.996078431372549" />
  </g>
</svg>