<?xml version="1.0" encoding="utf-8"?>
<svg version="1.1" xmlns:xlink="http://www.w3.org/1999/xlink" width="350px" height="469px" xmlns="http://www.w3.org/2000/svg">
  <g transform="matrix(1 0 0 1 -626 -4319 )">
    <path d="M 627 4324  A 4 4 0 0 1 631 4320 L 971 4320  A 4 4 0 0 1 975 4324 L 975 4783  A 4 4 0 0 1 971 4787 L 631 4787  A 4 4 0 0 1 627 4783 L 627 4324  Z " fill-rule="nonzero" fill="#ffffff" stroke="none" fill-opacity="0.501960784313725" />
    <path d="M 626.5 4324  A 4.5 4.5 0 0 1 631 4319.5 L 971 4319.5  A 4.5 4.5 0 0 1 975.5 4324 L 975.5 4783  A 4.5 4.5 0 0 1 971 4787.5 L 631 4787.5  A 4.5 4.5 0 0 1 626.5 4783 L 626.5 4324  Z " stroke-width="1" stroke="#000000" fill="none" stroke-opacity="0.996078431372549" />
  </g>
</svg>