<?xml version="1.0" encoding="utf-8"?>
<svg version="1.1" xmlns:xlink="http://www.w3.org/1999/xlink" width="754px" height="496px" xmlns="http://www.w3.org/2000/svg">
  <defs>
    <mask fill="white" id="clip904">
      <path d="M 0 486  L 0 0  L 744 0  L 744 486  L 354.523007856341 486  L 0 486  Z " fill-rule="evenodd" />
    </mask>
    <filter x="3px" y="-10px" width="754px" height="496px" filterUnits="userSpaceOnUse" id="filter905">
      <feOffset dx="5" dy="5" in="SourceAlpha" result="shadowOffsetInner" />
      <feGaussianBlur stdDeviation="2.5" in="shadowOffsetInner" result="shadowGaussian" />
      <feComposite in2="shadowGaussian" operator="atop" in="SourceAlpha" result="shadowComposite" />
      <feColorMatrix type="matrix" values="0 0 0 0 0  0 0 0 0 0  0 0 0 0 0  0 0 0 0.349019607843137 0  " in="shadowComposite" />
    </filter>
    <g id="widget906">
      <path d="M 0 486  L 0 0  L 744 0  L 744 486  L 354.523007856341 486  L 0 486  Z " fill-rule="nonzero" fill="#345501" stroke="none" transform="matrix(1 0 0 1 3 -10 )" />
      <path d="M 0 486  L 0 0  L 744 0  L 744 486  L 354.523007856341 486  L 0 486  Z " stroke-width="4" stroke="#ffffff" fill="none" transform="matrix(1 0 0 1 3 -10 )" mask="url(#clip904)" />
    </g>
  </defs>
  <g transform="matrix(1 0 0 1 -3 10 )">
    <use xlink:href="#widget906" filter="url(#filter905)" />
    <use xlink:href="#widget906" />
  </g>
</svg>