<?xml version="1.0" encoding="utf-8"?>
<svg version="1.1" xmlns:xlink="http://www.w3.org/1999/xlink" width="319px" height="804px" xmlns="http://www.w3.org/2000/svg">
  <defs>
    <mask fill="white" id="clip927">
      <path d="M 0 794  L 0 0  L 309 0  L 309 794  L 147.24141052098 794  L 0 794  Z " fill-rule="evenodd" />
    </mask>
    <filter x="1px" y="0px" width="319px" height="804px" filterUnits="userSpaceOnUse" id="filter928">
      <feOffset dx="5" dy="5" in="SourceAlpha" result="shadowOffsetInner" />
      <feGaussianBlur stdDeviation="2.5" in="shadowOffsetInner" result="shadowGaussian" />
      <feComposite in2="shadowGaussian" operator="atop" in="SourceAlpha" result="shadowComposite" />
      <feColorMatrix type="matrix" values="0 0 0 0 0  0 0 0 0 0  0 0 0 0 0  0 0 0 0.349019607843137 0  " in="shadowComposite" />
    </filter>
    <g id="widget929">
      <path d="M 0 794  L 0 0  L 309 0  L 309 794  L 147.24141052098 794  L 0 794  Z " fill-rule="nonzero" fill="#345501" stroke="none" transform="matrix(1 0 0 1 1 0 )" />
      <path d="M 0 794  L 0 0  L 309 0  L 309 794  L 147.24141052098 794  L 0 794  Z " stroke-width="4" stroke="#ffffff" fill="none" transform="matrix(1 0 0 1 1 0 )" mask="url(#clip927)" />
    </g>
  </defs>
  <g transform="matrix(1 0 0 1 -1 0 )">
    <use xlink:href="#widget929" filter="url(#filter928)" />
    <use xlink:href="#widget929" />
  </g>
</svg>