<?xml version="1.0" encoding="utf-8"?>
<svg version="1.1" xmlns:xlink="http://www.w3.org/1999/xlink" width="34px" height="35px" xmlns="http://www.w3.org/2000/svg">
  <g transform="matrix(1 0 0 1 -843 0 )">
    <path d="M 33.1986531986532 26.1616161616162  C 33.7328843995511 26.7115600448934  34 27.3793490460157  34 28.1649831649832  C 34 28.9506172839506  33.7328843995511 29.618406285073  33.1986531986532 30.1683501683502  L 29.3063973063973 34.1750841750842  C 28.7721661054994 34.7250280583614  28.1234567901235 35  27.3602693602694 35  C 26.5970819304153 35  25.9483726150393 34.7250280583614  25.4141414141414 34.1750841750842  L 17 25.513468013468  L 8.58585858585859 34.1750841750842  C 8.05162738496072 34.7250280583614  7.40291806958474 35  6.63973063973064 35  C 5.87654320987654 35  5.22783389450056 34.7250280583614  4.69360269360269 34.1750841750842  L 0.801346801346801 30.1683501683502  C 0.267115600448934 29.618406285073  0 28.9506172839506  0 28.1649831649832  C 0 27.3793490460157  0.267115600448934 26.7115600448934  0.801346801346801 26.1616161616162  L 9.21548821548821 17.5  L 0.801346801346801 8.83838383838384  C 0.267115600448934 8.28843995510662  0 7.62065095398429  0 6.83501683501683  C 0 6.04938271604938  0.267115600448934 5.38159371492704  0.801346801346801 4.83164983164983  L 4.69360269360269 0.824915824915825  C 5.22783389450056 0.274971941638607  5.87654320987654 0  6.63973063973064 0  C 7.40291806958474 0  8.05162738496072 0.274971941638607  8.58585858585859 0.824915824915825  L 17 9.48653198653199  L 25.4141414141414 0.824915824915825  C 25.9483726150393 0.274971941638607  26.5970819304153 0  27.3602693602694 0  C 28.1234567901235 0  28.7721661054994 0.274971941638607  29.3063973063973 0.824915824915825  L 33.1986531986532 4.83164983164983  C 33.7328843995511 5.38159371492704  34 6.04938271604938  34 6.83501683501683  C 34 7.62065095398429  33.7328843995511 8.28843995510662  33.1986531986532 8.83838383838384  L 24.7845117845118 17.5  L 33.1986531986532 26.1616161616162  Z " fill-rule="nonzero" fill="#000000" stroke="none" transform="matrix(1 0 0 1 843 0 )" />
  </g>
</svg>