<?xml version="1.0" encoding="utf-8"?>
<svg version="1.1" xmlns:xlink="http://www.w3.org/1999/xlink" width="360px" height="560px" xmlns="http://www.w3.org/2000/svg">
  <defs>
    <filter x="25px" y="1780px" width="360px" height="560px" filterUnits="userSpaceOnUse" id="filter870">
      <feOffset dx="5" dy="5" in="SourceAlpha" result="shadowOffsetInner" />
      <feGaussianBlur stdDeviation="2.5" in="shadowOffsetInner" result="shadowGaussian" />
      <feComposite in2="shadowGaussian" operator="atop" in="SourceAlpha" result="shadowComposite" />
      <feColorMatrix type="matrix" values="0 0 0 0 0  0 0 0 0 0  0 0 0 0 0  0 0 0 0.349019607843137 0  " in="shadowComposite" />
    </filter>
    <g id="widget871">
      <path d="M 25.5 1780.5  L 350 1780.5  A 24.5 24.5 0 0 1 374.5 1805 L 374.5 2305  A 24.5 24.5 0 0 1 350 2329.5 L 25.5 2329.5  L 25.5 1780.5  Z " fill-rule="nonzero" fill="#ffffff" stroke="none" fill-opacity="0" />
      <path d="M 25.5 1780.5  L 350 1780.5  A 24.5 24.5 0 0 1 374.5 1805 L 374.5 2305  A 24.5 24.5 0 0 1 350 2329.5 L 25.5 2329.5  L 25.5 1780.5  Z " stroke-width="1" stroke="#ffffff" fill="none" />
    </g>
  </defs>
  <g transform="matrix(1 0 0 1 -25 -1780 )">
    <use xlink:href="#widget871" filter="url(#filter870)" />
    <use xlink:href="#widget871" />
  </g>
</svg>