<?xml version="1.0" encoding="utf-8"?>
<svg version="1.1" xmlns:xlink="http://www.w3.org/1999/xlink" width="360px" height="560px" xmlns="http://www.w3.org/2000/svg">
  <defs>
    <filter x="825px" y="1780px" width="360px" height="560px" filterUnits="userSpaceOnUse" id="filter873">
      <feOffset dx="5" dy="5" in="SourceAlpha" result="shadowOffsetInner" />
      <feGaussianBlur stdDeviation="2.5" in="shadowOffsetInner" result="shadowGaussian" />
      <feComposite in2="shadowGaussian" operator="atop" in="SourceAlpha" result="shadowComposite" />
      <feColorMatrix type="matrix" values="0 0 0 0 0  0 0 0 0 0  0 0 0 0 0  0 0 0 0.349019607843137 0  " in="shadowComposite" />
    </filter>
    <g id="widget874">
      <path d="M 826 1805  A 24 24 0 0 1 850 1781 L 1174 1781  L 1174 2329  L 850 2329  A 24 24 0 0 1 826 2305 L 826 1805  Z " fill-rule="nonzero" fill="#ffffff" stroke="none" fill-opacity="0" />
      <path d="M 825.5 1805  A 24.5 24.5 0 0 1 850 1780.5 L 1174.5 1780.5  L 1174.5 2329.5  L 850 2329.5  A 24.5 24.5 0 0 1 825.5 2305 L 825.5 1805  Z " stroke-width="1" stroke="#ffffff" fill="none" stroke-opacity="0.996078431372549" />
    </g>
  </defs>
  <g transform="matrix(1 0 0 1 -825 -1780 )">
    <use xlink:href="#widget874" filter="url(#filter873)" />
    <use xlink:href="#widget874" />
  </g>
</svg>