<?xml version="1.0" encoding="utf-8"?>
<svg version="1.1" xmlns:xlink="http://www.w3.org/1999/xlink" width="320px" height="560px" xmlns="http://www.w3.org/2000/svg">
  <defs>
    <filter x="5px" y="6078px" width="320px" height="560px" filterUnits="userSpaceOnUse" id="filter923">
      <feOffset dx="5" dy="5" in="SourceAlpha" result="shadowOffsetInner" />
      <feGaussianBlur stdDeviation="2.5" in="shadowOffsetInner" result="shadowGaussian" />
      <feComposite in2="shadowGaussian" operator="atop" in="SourceAlpha" result="shadowComposite" />
      <feColorMatrix type="matrix" values="0 0 0 0 0  0 0 0 0 0  0 0 0 0 0  0 0 0 0.349019607843137 0  " in="shadowComposite" />
    </filter>
    <g id="widget924">
      <path d="M 6 6103  A 24 24 0 0 1 30 6079 L 290 6079  A 24 24 0 0 1 314 6103 L 314 6603  A 24 24 0 0 1 290 6627 L 30 6627  A 24 24 0 0 1 6 6603 L 6 6103  Z " fill-rule="nonzero" fill="#ffffff" stroke="none" fill-opacity="0" />
      <path d="M 5.5 6103  A 24.5 24.5 0 0 1 30 6078.5 L 290 6078.5  A 24.5 24.5 0 0 1 314.5 6103 L 314.5 6603  A 24.5 24.5 0 0 1 290 6627.5 L 30 6627.5  A 24.5 24.5 0 0 1 5.5 6603 L 5.5 6103  Z " stroke-width="1" stroke="#ffffff" fill="none" stroke-opacity="0.996078431372549" />
    </g>
  </defs>
  <g transform="matrix(1 0 0 1 -5 -6078 )">
    <use xlink:href="#widget924" filter="url(#filter923)" />
    <use xlink:href="#widget924" />
  </g>
</svg>