<?xml version="1.0" encoding="utf-8"?>
<svg version="1.1" xmlns:xlink="http://www.w3.org/1999/xlink" width="360px" height="560px" xmlns="http://www.w3.org/2000/svg">
  <defs>
    <filter x="64px" y="5548px" width="360px" height="560px" filterUnits="userSpaceOnUse" id="filter914">
      <feOffset dx="5" dy="5" in="SourceAlpha" result="shadowOffsetInner" />
      <feGaussianBlur stdDeviation="2.5" in="shadowOffsetInner" result="shadowGaussian" />
      <feComposite in2="shadowGaussian" operator="atop" in="SourceAlpha" result="shadowComposite" />
      <feColorMatrix type="matrix" values="0 0 0 0 0  0 0 0 0 0  0 0 0 0 0  0 0 0 0.349019607843137 0  " in="shadowComposite" />
    </filter>
    <g id="widget915">
      <path d="M 65 5573  A 24 24 0 0 1 89 5549 L 389 5549  A 24 24 0 0 1 413 5573 L 413 6073  A 24 24 0 0 1 389 6097 L 89 6097  A 24 24 0 0 1 65 6073 L 65 5573  Z " fill-rule="nonzero" fill="#ffffff" stroke="none" fill-opacity="0" />
      <path d="M 64.5 5573  A 24.5 24.5 0 0 1 89 5548.5 L 389 5548.5  A 24.5 24.5 0 0 1 413.5 5573 L 413.5 6073  A 24.5 24.5 0 0 1 389 6097.5 L 89 6097.5  A 24.5 24.5 0 0 1 64.5 6073 L 64.5 5573  Z " stroke-width="1" stroke="#ffffff" fill="none" stroke-opacity="0.996078431372549" />
    </g>
  </defs>
  <g transform="matrix(1 0 0 1 -64 -5548 )">
    <use xlink:href="#widget915" filter="url(#filter914)" />
    <use xlink:href="#widget915" />
  </g>
</svg>